<?xml version="1.0" standalone="no"?>
<!DOCTYPE svg PUBLIC "-//W3C//DTD SVG 20010904//EN"
 "http://www.w3.org/TR/2001/REC-SVG-20010904/DTD/svg10.dtd">
<svg version="1.0" xmlns="http://www.w3.org/2000/svg"
 width="937.000000pt" height="932.000000pt" viewBox="0 0 937.000000 932.000000"
 preserveAspectRatio="xMidYMid meet">

<g transform="translate(0.000000,932.000000) scale(0.100000,-0.100000)"
fill="#000000" stroke="none">
<path d="M4400 9289 c-371 -23 -603 -61 -975 -159 -140 -36 -450 -145 -570
-200 -11 -5 -42 -19 -70 -30 -141 -61 -494 -250 -536 -286 -8 -8 -19 -14 -23
-14 -22 0 -442 -302 -486 -350 -3 -3 -45 -39 -95 -80 -197 -163 -472 -460
-663 -713 -73 -97 -110 -151 -228 -332 -83 -128 -259 -461 -304 -575 -7 -19
-23 -57 -35 -85 -35 -78 -101 -260 -136 -370 -31 -98 -37 -120 -77 -275 -30
-114 -74 -327 -83 -405 -4 -38 -13 -97 -18 -130 -63 -365 -41 -1033 48 -1470
119 -579 310 -1060 618 -1555 513 -825 1323 -1495 2223 -1840 47 -18 94 -37
105 -41 119 -51 491 -153 685 -188 63 -12 138 -26 165 -31 46 -9 115 -18 335
-40 115 -12 675 -11 775 1 44 5 125 13 180 19 55 5 118 14 140 19 22 5 83 17
135 26 296 52 702 174 937 281 28 13 54 24 58 24 14 0 349 169 429 217 49 29
90 53 93 53 9 0 303 198 378 254 241 181 525 443 701 646 21 25 41 47 44 50
15 15 144 176 196 245 168 225 307 452 439 720 247 501 384 977 451 1570 25
213 24 703 0 915 -30 261 -103 644 -152 800 -54 171 -97 299 -132 390 -41 109
-159 375 -197 445 -12 22 -44 81 -70 130 -105 194 -309 496 -455 673 -518 629
-1151 1092 -1895 1385 -190 74 -464 161 -589 186 -23 5 -84 18 -136 30 -373
82 -817 115 -1210 90z m675 -199 c415 -43 771 -126 1170 -274 178 -66 508
-227 695 -341 626 -379 1164 -927 1533 -1561 86 -148 197 -370 248 -496 22
-57 47 -118 55 -135 20 -44 113 -325 131 -393 105 -403 149 -707 160 -1100 6
-248 -17 -575 -56 -800 -75 -420 -153 -686 -311 -1050 -333 -767 -891 -1434
-1585 -1897 -542 -361 -1103 -584 -1745 -692 -401 -68 -958 -72 -1350 -9 -36
5 -90 13 -121 18 -63 8 -90 14 -299 65 -208 51 -255 65 -492 151 -40 15 -91
35 -113 44 -22 10 -69 30 -105 45 -363 152 -827 449 -1148 734 -460 409 -865
956 -1096 1481 -15 36 -34 79 -42 95 -103 233 -220 613 -270 880 -43 229 -62
394 -74 639 -26 509 39 1029 191 1518 31 101 100 294 119 333 5 11 28 65 50
120 49 116 162 337 247 480 60 101 192 306 203 315 4 3 21 25 38 50 160 224
396 483 633 694 39 35 175 145 285 231 79 61 356 245 404 268 8 4 42 23 75 42
134 79 435 222 565 270 197 72 392 133 505 160 189 45 320 70 440 86 39 5 102
13 140 20 170 27 695 32 920 9z"/>
<path d="M4628 9048 c-9 -13 -20 -48 -26 -78 -11 -56 -117 -424 -128 -441 -3
-5 -104 -9 -228 -9 -245 0 -289 -4 -284 -28 2 -9 52 -51 112 -94 61 -43 151
-108 200 -145 50 -36 92 -67 93 -68 2 -1 -4 -26 -12 -56 -9 -30 -17 -63 -19
-74 -3 -25 -54 -192 -67 -223 -5 -13 -9 -31 -9 -40 0 -9 -7 -29 -14 -44 -8
-16 -18 -48 -22 -73 -7 -52 7 -59 48 -25 12 11 108 85 211 164 l189 145 33
-22 c74 -48 340 -243 356 -261 24 -25 53 -14 46 17 -3 12 -35 114 -72 227 -37
113 -69 219 -71 235 -4 28 6 37 192 178 186 142 216 169 199 185 -4 4 -120 7
-258 7 l-251 0 -22 60 c-39 111 -54 160 -54 181 0 11 -4 24 -9 30 -4 5 -21 50
-36 99 -15 50 -31 99 -36 110 -4 11 -11 30 -14 43 -4 12 -12 22 -20 22 -7 0
-19 -10 -27 -22z m32 -330 c0 -6 11 -34 24 -62 14 -29 27 -63 31 -77 6 -24 3
-27 -32 -32 -21 -4 -49 -7 -62 -7 -22 0 -23 3 -17 40 9 58 39 150 48 150 4 0
8 -5 8 -12z m109 -297 c8 -5 29 -53 47 -108 25 -75 30 -101 21 -112 -6 -7 -46
-40 -88 -72 l-76 -58 -84 60 c-121 87 -115 75 -91 155 11 38 24 83 27 101 5
27 12 32 38 36 64 8 192 6 206 -2z m311 -9 c0 -5 -10 -17 -22 -28 -67 -57
-116 -94 -125 -94 -6 0 -13 23 -17 50 -4 28 -9 57 -12 65 -5 13 8 15 85 15 50
0 91 -4 91 -8z m-660 -22 c0 -36 -25 -101 -38 -98 -16 4 -141 101 -142 111 0
4 41 7 90 7 84 0 90 -1 90 -20z m479 -383 c12 -37 21 -72 19 -78 -4 -13 -132
65 -135 82 -3 16 79 82 88 71 3 -4 16 -38 28 -75z m-393 46 c18 -16 34 -32 34
-38 0 -11 -105 -95 -119 -95 -5 0 -3 26 5 58 9 31 18 67 21 80 7 29 17 28 59
-5z"/>
<path d="M7042 7580 c-19 -11 -44 -33 -57 -48 -26 -29 -75 -124 -75 -146 0
-12 -44 -62 -230 -261 -41 -44 -140 -152 -220 -240 -80 -88 -172 -189 -205
-225 -33 -36 -104 -112 -156 -170 -156 -171 -323 -354 -339 -370 -8 -9 -51
-56 -95 -105 -44 -49 -136 -150 -204 -225 -69 -74 -147 -160 -174 -190 -28
-30 -102 -111 -166 -180 -64 -69 -170 -185 -236 -259 l-120 -134 -3 799 c-1
439 0 804 2 811 3 6 38 22 78 35 60 19 94 23 198 23 135 -1 124 2 389 -95 159
-58 320 -60 441 -7 l55 24 -4 389 c-1 214 -4 390 -5 392 -2 1 -17 -5 -34 -13
-96 -48 -310 -16 -529 79 -222 95 -410 111 -545 46 -50 -24 -45 -24 -51 1 -5
17 -12 20 -44 17 l-38 -3 -3 -1257 c-1 -692 -5 -1258 -10 -1258 -4 0 -32 24
-62 52 -100 94 -233 220 -430 408 -107 103 -217 206 -244 231 -27 24 -57 62
-66 84 -28 63 -90 140 -142 176 -35 23 -47 37 -42 48 44 102 42 133 -8 139
-23 3 -109 -80 -321 -312 -18 -19 -27 -40 -27 -62 0 -31 2 -34 32 -34 17 0 52
10 77 22 l45 22 15 -25 c38 -57 84 -97 157 -134 99 -49 109 -57 219 -164 50
-48 171 -163 270 -256 99 -93 235 -224 302 -290 l122 -120 -126 -140 c-69 -77
-180 -201 -246 -275 -67 -74 -157 -175 -203 -225 -111 -122 -610 -678 -807
-900 -88 -99 -215 -241 -282 -315 -144 -159 -388 -432 -489 -545 -39 -44 -98
-109 -131 -145 -125 -136 -160 -182 -179 -237 -22 -66 -17 -73 61 -73 l52 0
184 198 c101 108 304 328 452 487 148 160 330 355 404 435 75 80 187 201 251
270 64 69 177 190 251 269 74 79 167 181 208 225 41 45 108 117 149 161 127
136 193 206 307 330 189 205 237 255 246 255 5 0 9 -340 9 -761 l0 -760 43 3
42 3 3 778 c2 659 4 776 16 765 7 -7 51 -49 97 -92 153 -145 338 -321 634
-602 105 -99 278 -263 385 -364 107 -101 236 -223 285 -270 50 -48 137 -131
195 -185 110 -104 218 -206 385 -366 55 -53 119 -113 143 -134 24 -21 50 -54
58 -74 23 -56 82 -139 117 -165 18 -13 58 -38 90 -56 31 -17 57 -33 57 -35 0
-1 -11 -22 -24 -46 -13 -24 -27 -59 -31 -76 -6 -29 -3 -34 20 -45 41 -19 121
28 225 131 113 112 180 241 139 267 -23 14 -68 5 -108 -20 -22 -14 -44 -26
-49 -26 -9 0 -62 76 -62 89 0 21 -109 109 -179 145 -72 37 -117 76 -463 406
-211 201 -413 391 -448 424 -36 32 -119 111 -185 175 -66 64 -214 206 -330
316 -115 109 -251 237 -300 284 -310 294 -446 423 -493 465 -28 27 -52 54 -52
60 0 11 84 105 314 351 72 77 160 172 196 210 36 39 99 106 140 150 41 44 125
134 185 200 61 65 142 153 181 195 39 41 106 113 149 160 43 47 82 87 87 89 5
2 37 -11 70 -29 59 -32 62 -32 162 -27 86 4 114 10 190 41 168 69 300 158 426
285 132 133 193 250 194 366 0 91 -34 159 -112 219 -49 38 -53 44 -48 74 3 19
16 53 30 77 22 37 39 49 120 89 52 25 103 57 114 71 31 39 35 86 13 136 -50
116 -164 170 -249 119z m-28 -626 c45 -46 58 -128 31 -205 -21 -59 -137 -210
-228 -296 -99 -94 -177 -133 -268 -133 -80 0 -99 13 -99 69 0 92 26 128 275
376 153 153 225 214 256 215 4 0 18 -12 33 -26z"/>
<path d="M1893 7474 c-15 -40 142 -353 244 -486 15 -20 42 -56 58 -79 118
-168 548 -579 713 -683 24 -15 42 -34 42 -44 0 -28 -40 -60 -90 -71 -81 -19
-325 -10 -424 15 -40 10 -31 -16 17 -51 216 -157 462 -226 714 -201 l82 8 128
135 c164 174 163 172 132 213 -108 144 -547 574 -797 782 -48 40 -89 75 -92
79 -3 3 -21 17 -41 30 -20 13 -78 53 -130 89 -157 109 -336 204 -477 253 -60
21 -74 23 -79 11z"/>
<path d="M1667 5413 c-2 -5 -30 -98 -62 -208 -32 -110 -67 -229 -79 -265 l-22
-65 -246 -5 c-162 -3 -251 -9 -258 -16 -8 -8 -1 -19 28 -42 65 -52 345 -254
359 -259 7 -3 13 -13 13 -23 0 -23 -106 -394 -120 -421 -6 -11 -13 -32 -15
-47 -3 -15 -8 -39 -11 -54 -9 -42 18 -36 79 15 29 24 111 88 182 142 72 55
136 105 143 112 8 7 22 18 33 23 21 12 31 6 192 -111 45 -33 107 -77 137 -98
31 -22 62 -46 69 -55 7 -9 22 -16 32 -16 21 0 25 25 10 62 -5 13 -26 75 -46
138 -19 63 -49 156 -65 207 -16 51 -27 98 -24 105 3 7 62 56 132 108 211 158
263 202 260 219 -3 14 -33 16 -255 15 l-252 -1 -25 71 c-14 39 -33 98 -42 131
-9 33 -20 69 -25 80 -10 22 -67 206 -76 243 -5 21 -37 31 -46 15z m29 -350 c3
-10 10 -26 15 -35 20 -38 47 -118 40 -122 -11 -7 -110 -10 -117 -3 -9 8 37
177 48 177 5 0 11 -8 14 -17z m140 -358 c46 -134 46 -135 35 -149 -27 -32
-162 -128 -174 -122 -6 3 -48 31 -92 64 -89 65 -97 82 -72 155 8 23 20 61 26
85 l12 43 121 -3 120 -3 24 -70z m278 69 c11 -4 0 -18 -42 -53 -31 -26 -69
-55 -83 -65 -24 -15 -27 -15 -33 -1 -3 9 -6 31 -6 49 0 18 -5 37 -11 43 -23
23 3 33 81 33 43 0 85 -3 94 -6z m-654 -20 c0 -14 -32 -114 -36 -114 -10 0
-144 104 -144 112 0 4 41 8 90 8 50 0 90 -3 90 -6z m75 -345 c19 -17 35 -36
35 -43 0 -14 -109 -100 -117 -93 -7 8 34 167 44 167 1 0 18 -14 38 -31z m393
-31 c40 -124 43 -116 -24 -78 -66 36 -96 60 -92 71 3 9 80 68 89 69 4 0 16
-28 27 -62z"/>
<path d="M7592 5393 c-6 -16 -16 -48 -22 -73 -6 -25 -15 -56 -20 -70 -8 -23
-17 -53 -66 -230 -30 -106 -37 -125 -46 -137 -8 -10 -68 -13 -237 -13 -236 0
-271 -4 -271 -26 0 -7 48 -48 108 -90 322 -233 307 -217 278 -306 -7 -24 -25
-81 -39 -128 -14 -47 -35 -119 -47 -160 -12 -41 -26 -79 -30 -85 -4 -5 -10
-29 -14 -52 -8 -58 8 -57 83 5 32 26 80 64 107 84 27 20 92 70 144 111 53 40
101 77 108 81 14 8 39 -7 179 -109 45 -33 113 -82 152 -110 39 -27 70 -53 71
-57 0 -5 9 -8 20 -8 22 0 27 32 10 72 -5 13 -32 97 -60 188 -28 91 -58 183
-66 205 l-15 40 34 30 c19 17 108 86 200 155 91 69 168 131 171 138 14 32 -6
35 -255 30 -174 -3 -252 -2 -258 6 -11 14 -57 159 -67 211 -4 22 -12 49 -19
60 -7 11 -30 75 -51 142 -41 130 -60 152 -82 96z m45 -355 c47 -104 53 -120
48 -129 -7 -10 -108 -13 -117 -3 -3 3 1 31 9 62 8 31 17 69 20 85 7 38 18 34
40 -15z m140 -358 c17 -52 32 -102 32 -110 1 -8 -37 -44 -84 -79 l-85 -63 -87
60 c-48 32 -92 66 -97 75 -6 10 -2 41 14 98 36 130 23 120 158 117 l116 -3 33
-95z m265 92 c14 -6 2 -20 -60 -69 -68 -55 -78 -60 -89 -45 -7 9 -13 30 -13
48 0 18 -4 36 -10 39 -15 10 -12 23 8 28 27 7 145 6 164 -1z m-652 -19 c0 -20
-35 -113 -42 -111 -15 6 -137 103 -138 111 0 4 41 7 90 7 50 0 90 -3 90 -7z
m112 -378 c4 -5 5 -12 3 -16 -10 -16 -116 -91 -122 -86 -7 8 10 79 32 131 l16
38 32 -28 c17 -16 35 -33 39 -39z m364 -15 c28 -89 27 -80 11 -80 -25 0 -137
79 -131 92 6 17 76 68 88 65 4 -2 19 -36 32 -77z"/>
<path d="M3536 2505 c-25 -53 -59 -114 -76 -135 -41 -51 -102 -75 -173 -66
-51 5 -55 4 -65 -20 -7 -14 -12 -38 -12 -53 0 -27 3 -29 59 -39 113 -20 239
39 307 144 9 13 21 24 26 24 6 0 35 -22 64 -49 119 -109 178 -136 294 -136 74
1 92 5 140 30 30 16 88 62 128 102 40 40 76 73 80 73 4 0 33 -27 65 -59 31
-32 85 -73 120 -92 56 -30 70 -33 147 -33 76 0 91 3 147 32 35 18 94 61 132
97 37 36 71 65 75 65 3 0 23 -18 43 -41 49 -55 152 -127 213 -150 69 -26 183
-26 246 1 58 25 115 68 176 134 l47 50 59 -56 c88 -85 200 -133 292 -126 l45
3 0 50 c0 48 -1 50 -30 53 -46 4 -116 23 -156 43 -42 21 -128 112 -165 175
-14 24 -33 44 -42 44 -10 0 -34 -27 -55 -60 -156 -245 -329 -286 -509 -121
-32 29 -81 81 -109 117 -28 35 -54 64 -59 64 -4 0 -19 -18 -33 -39 -43 -64
-160 -176 -210 -199 -71 -33 -157 -30 -223 8 -54 30 -137 116 -182 187 -15 24
-34 43 -42 43 -8 0 -35 -32 -60 -71 -49 -78 -131 -159 -191 -189 -27 -14 -58
-20 -106 -20 -57 0 -76 5 -119 30 -62 35 -137 117 -189 206 -21 35 -42 67 -46
70 -4 2 -28 -39 -53 -91z"/>
<path d="M3537 2009 c-76 -162 -140 -216 -247 -206 -58 5 -59 5 -69 -25 -23
-64 -12 -80 65 -93 93 -15 227 55 291 151 8 13 20 24 25 24 6 0 37 -25 69 -55
33 -30 90 -71 127 -92 64 -36 71 -38 157 -38 80 0 96 3 145 29 30 16 88 62
129 102 l73 74 64 -59 c35 -32 92 -73 126 -92 56 -29 72 -33 143 -34 69 0 89
4 145 31 39 18 94 58 136 98 40 36 74 66 77 66 3 0 27 -22 54 -48 114 -115
212 -164 323 -165 104 -1 182 37 280 135 l70 71 60 -57 c83 -79 172 -120 265
-120 l70 -1 0 55 0 55 -71 6 c-58 4 -81 11 -123 38 -56 36 -115 98 -158 167
-26 40 -63 60 -63 33 0 -13 -110 -156 -146 -191 -145 -134 -306 -94 -488 120
-38 45 -73 82 -77 82 -3 0 -18 -17 -32 -37 -14 -21 -47 -61 -74 -89 -153 -161
-267 -181 -402 -72 -33 26 -80 76 -105 111 -78 110 -75 110 -134 18 -92 -141
-192 -211 -301 -211 -105 0 -193 63 -285 205 -80 124 -67 123 -119 14z"/>
<path d="M3532 1498 c-76 -159 -132 -205 -238 -195 -61 6 -62 6 -74 -23 -21
-50 -10 -72 43 -89 40 -12 56 -13 100 -2 74 18 145 64 196 127 l43 54 70 -64
c38 -35 101 -80 140 -100 61 -32 79 -36 142 -36 99 0 175 38 274 137 40 40 74
73 76 73 2 0 32 -27 67 -61 179 -173 360 -171 548 6 38 36 71 65 74 65 3 0 37
-30 76 -67 61 -59 101 -85 210 -137 13 -6 56 -11 95 -10 109 2 192 46 296 156
25 26 48 48 52 48 3 0 34 -27 69 -60 81 -78 182 -122 267 -118 l57 3 3 49 c4
58 -4 66 -73 66 -96 1 -192 68 -271 193 -24 37 -48 67 -53 67 -4 0 -25 -28
-46 -61 -48 -78 -148 -180 -200 -205 -49 -23 -166 -24 -208 -1 -63 33 -150
111 -204 181 -32 41 -62 75 -68 75 -5 0 -26 -21 -45 -47 -53 -73 -149 -160
-210 -190 -128 -63 -251 -8 -375 167 -27 39 -57 71 -65 71 -8 0 -32 -26 -52
-58 -55 -86 -106 -141 -167 -180 -51 -33 -62 -36 -131 -37 -54 0 -86 5 -115
19 -55 26 -152 128 -199 209 -21 37 -42 70 -47 72 -4 3 -30 -41 -57 -97z"/>
<path d="M0 10 c0 -7 1568 -10 4685 -10 3117 0 4685 3 4685 10 0 7 -1568 10
-4685 10 -3117 0 -4685 -3 -4685 -10z"/>
</g>
</svg>
